<?xml version="1.0" standalone="no"?>
<!DOCTYPE svg PUBLIC "-//W3C//DTD SVG 20010904//EN"
 "http://www.w3.org/TR/2001/REC-SVG-20010904/DTD/svg10.dtd">
<svg version="1.0" xmlns="http://www.w3.org/2000/svg"
 width="3508.000000pt" height="2480.000000pt" viewBox="0 0 3508.000000 2480.000000"
 preserveAspectRatio="xMidYMid meet">

<g transform="translate(0.000000,2480.000000) scale(0.100000,-0.100000)"
fill="#000000" stroke="none">
<path d="M18393 23180 c-112 -56 -236 -209 -284 -351 -20 -59 -27 -69 -52 -75
-16 -3 -65 -41 -115 -88 -48 -46 -132 -120 -187 -166 -55 -45 -169 -146 -254
-224 -277 -254 -400 -416 -499 -659 -11 -25 -15 -27 -49 -21 -69 11 -230 -66
-361 -173 -24 -20 -45 -33 -47 -31 -15 14 32 514 66 704 12 70 2 104 -31 104
-24 0 -260 -117 -386 -191 -567 -333 -996 -806 -1150 -1266 -15 -45 -30 -80
-34 -78 -4 2 -15 54 -25 115 -24 147 -17 439 14 577 42 192 103 337 202 484
66 98 377 511 462 614 69 83 90 134 85 205 -5 68 -37 120 -73 120 -74 0 -398
-136 -695 -292 -811 -426 -1453 -891 -2040 -1478 -395 -394 -666 -737 -891
-1130 l-66 -115 -144 2 c-79 0 -324 8 -544 17 -220 9 -634 23 -920 31 -286 9
-675 22 -865 30 -189 8 -357 15 -372 15 l-28 0 0 -1345 0 -1345 535 0 c294 0
535 -2 535 -4 0 -3 -59 -102 -131 -221 -352 -583 -628 -1265 -838 -2077 -124
-476 -183 -825 -223 -1323 -17 -214 -17 -1006 0 -1220 107 -1319 437 -2423
1035 -3465 130 -227 301 -472 478 -685 99 -119 393 -414 647 -650 175 -163
184 -173 220 -250 151 -327 248 -474 446 -670 216 -215 327 -292 447 -310 25
-4 50 -10 55 -13 5 -4 36 -46 68 -95 143 -218 315 -320 536 -320 108 0 151 12
277 75 l102 51 160 -72 c1289 -575 2675 -783 4066 -611 841 104 1655 349 2432
731 110 54 208 99 217 99 9 0 47 -20 84 -44 131 -84 188 -99 261 -70 72 29 84
57 96 229 8 120 13 150 25 152 8 2 51 -26 95 -63 198 -162 406 -294 690 -436
203 -102 237 -110 282 -66 37 38 42 114 14 260 -27 142 -50 367 -39 374 5 3
25 -7 45 -23 107 -85 150 -116 249 -178 60 -38 197 -126 304 -196 231 -151
324 -202 482 -263 166 -65 224 -60 249 22 10 33 8 48 -16 113 -78 217 -145
412 -145 426 0 23 15 14 156 -93 124 -94 307 -217 726 -487 253 -164 277 -174
337 -142 61 31 64 96 11 254 -34 102 -163 431 -205 525 -14 32 -24 64 -22 70
2 6 66 -50 143 -124 209 -203 553 -493 759 -642 202 -145 567 -338 752 -397
119 -38 346 -91 391 -91 77 0 132 46 132 111 0 51 -44 197 -81 272 -101 201
-242 365 -855 1002 -132 137 -389 407 -570 600 -181 192 -458 482 -616 644
-159 161 -288 298 -288 303 0 5 -63 87 -139 182 -436 542 -603 812 -893 1436
-60 129 -149 311 -199 403 -50 93 -89 172 -87 177 2 4 55 -21 118 -56 196
-109 439 -205 635 -250 113 -27 369 -27 437 -1 84 33 106 83 69 162 -25 53
-296 352 -414 456 -191 169 -710 538 -1067 759 -30 19 -131 89 -225 155 -93
67 -201 143 -238 169 -97 68 -182 151 -317 306 -163 188 -434 460 -501 503
-195 126 -362 173 -582 164 -161 -6 -220 -23 -402 -116 -101 -51 -144 -80
-197 -131 -37 -36 -68 -62 -68 -59 0 3 4 19 9 35 6 16 40 122 76 237 50 158
71 211 88 222 13 8 72 18 147 25 241 20 574 -26 700 -98 142 -81 178 -85 230
-26 64 74 87 195 70 374 -42 444 -258 990 -550 1390 -48 66 -75 110 -66 110 3
0 44 -34 92 -76 431 -376 986 -598 1386 -554 176 19 178 21 148 112 -26 79
-114 418 -134 518 -17 82 -40 264 -55 432 -15 151 -53 309 -112 461 -68 174
-84 205 -177 338 -97 141 -120 181 -107 185 6 2 48 26 94 53 46 27 103 55 127
62 41 12 43 15 49 58 8 63 -27 260 -69 386 -71 211 -174 383 -324 537 -133
137 -285 236 -432 282 -30 10 -61 20 -69 22 -8 3 34 53 113 135 465 479 898
1171 1209 1932 16 39 -1 62 -44 61 -20 0 -111 -37 -219 -86 -102 -47 -288
-127 -415 -178 -268 -108 -400 -170 -655 -310 -102 -56 -237 -127 -300 -157
l-115 -54 120 113 c289 275 461 547 552 873 33 121 43 344 19 455 -25 118 -84
230 -166 314 -39 40 -70 81 -70 91 0 10 13 39 30 64 69 108 137 293 177 481
26 123 27 539 1 587 -22 39 -49 48 -85 29 -39 -20 -66 -52 -97 -113 -130 -261
-397 -591 -600 -742 -100 -74 -325 -185 -494 -242 -80 -28 -188 -70 -238 -94
-182 -88 -362 -227 -449 -349 -22 -30 -43 -55 -46 -56 -4 0 -12 26 -17 58 -23
123 -164 888 -201 1092 -22 118 -51 265 -65 325 -66 289 -71 344 -66 675 9
636 6 704 -32 752 -24 30 -62 30 -125 -2z m-27 -322 c-4 -57 -14 -154 -22
-216 -20 -162 -17 -308 11 -542 25 -207 60 -401 115 -630 61 -253 133 -619
231 -1180 53 -300 50 -480 -11 -729 -80 -326 -226 -625 -424 -871 -82 -101
-323 -347 -416 -425 -128 -106 -695 -531 -822 -617 -67 -44 -204 -127 -306
-185 -572 -322 -991 -641 -1323 -1006 -229 -251 -339 -421 -418 -648 -22 -63
-51 -142 -65 -176 -70 -169 -139 -488 -176 -818 -6 -55 -15 -138 -21 -185 -43
-389 -95 -563 -218 -728 -195 -261 -532 -470 -925 -573 -337 -87 -986 -141
-1341 -110 -397 35 -683 110 -990 261 -275 135 -472 263 -682 444 -575 495
-880 1188 -812 1847 17 175 87 450 113 449 6 -1 33 -30 59 -65 157 -208 399
-416 627 -538 312 -167 676 -205 976 -103 238 80 358 177 564 451 192 256 434
448 610 486 85 18 219 6 335 -30 55 -18 113 -31 130 -29 26 3 30 8 44 60 14
54 14 59 -4 78 -10 12 -46 37 -79 57 -587 353 -968 786 -1136 1292 -213 640
-77 1356 391 2046 77 114 234 312 369 465 51 58 145 166 210 241 176 202 309
338 575 587 269 253 343 314 632 525 360 262 650 445 801 507 37 15 114 57
171 94 57 37 106 65 108 62 3 -3 -13 -28 -36 -55 -73 -87 -203 -291 -273 -426
-121 -237 -195 -452 -239 -700 -33 -180 -33 -508 0 -658 50 -237 169 -495 319
-692 165 -217 374 -395 596 -507 181 -91 437 -163 628 -175 111 -7 115 0 60
99 -61 112 -128 307 -147 433 -15 90 -17 150 -12 330 6 245 26 378 78 543 82
254 283 548 464 677 73 52 197 115 226 115 11 0 34 -14 51 -30 27 -27 30 -35
24 -70 -7 -45 4 -51 53 -26 39 20 53 46 91 161 41 125 118 291 166 358 105
147 326 367 574 571 52 43 110 92 127 109 l33 31 32 -38 c28 -32 40 -38 71
-38 47 0 83 31 97 81 5 20 14 83 19 141 12 126 40 222 81 278 17 23 33 42 36
42 4 0 3 -46 0 -102z m-521 -5808 c179 -26 351 -92 397 -152 13 -18 39 -60 58
-93 69 -124 159 -243 270 -358 138 -143 224 -214 435 -357 89 -59 177 -126
198 -149 31 -34 87 -128 87 -146 0 -3 -48 -5 -107 -5 -254 0 -500 -69 -690
-193 -84 -55 -159 -121 -178 -156 -49 -96 -69 -465 -41 -751 30 -295 92 -544
165 -657 23 -34 45 -64 50 -68 6 -3 13 11 16 32 26 152 72 257 151 342 76 83
131 113 215 119 177 12 374 -99 449 -254 46 -93 38 -486 -15 -824 -14 -85 -31
-214 -40 -286 -22 -196 -57 -348 -156 -679 -132 -438 -216 -648 -358 -895 -40
-69 -101 -195 -137 -280 -36 -85 -100 -213 -142 -285 -62 -105 -95 -148 -173
-226 -82 -82 -109 -103 -190 -143 -145 -71 -190 -79 -429 -80 -186 -1 -216 2
-331 27 -327 70 -701 223 -1027 421 -484 293 -935 698 -1248 1118 -96 128
-139 208 -179 326 -128 377 -151 843 -64 1266 42 202 143 476 220 596 70 108
241 169 499 177 198 6 292 -9 505 -83 248 -86 289 -95 465 -101 184 -6 294 8
479 61 148 43 287 109 357 168 102 87 189 224 220 348 26 102 26 310 0 395
-41 135 -59 156 -251 286 -392 266 -941 363 -1458 258 -88 -18 -316 -86 -467
-141 -94 -34 -94 -33 -82 -12 26 47 256 268 347 334 110 79 156 105 272 151
126 50 349 168 473 251 117 78 230 165 400 308 202 171 255 210 358 263 123
63 226 99 332 117 41 6 82 13 90 15 36 7 191 4 255 -5z m-1304 -2011 c155 -21
403 -121 533 -215 61 -45 57 -50 -86 -104 -182 -68 -218 -74 -448 -74 -213 0
-357 16 -511 55 -42 10 -147 30 -234 44 -160 26 -175 30 -175 45 0 4 48 38
106 75 139 89 288 152 401 169 110 17 303 20 414 5z m-3727 -2079 c106 -22
357 -111 546 -192 401 -172 817 -470 1088 -781 150 -172 206 -229 367 -376
538 -491 1233 -1011 1826 -1366 223 -133 430 -240 678 -350 151 -67 208 -85
425 -141 138 -36 319 -84 401 -109 83 -24 292 -83 465 -130 420 -115 772 -222
960 -291 201 -73 244 -88 890 -307 300 -102 597 -204 660 -227 221 -80 455
-161 510 -175 31 -8 105 -21 165 -30 124 -17 155 -32 155 -75 0 -86 -204 -134
-565 -134 -408 1 -719 88 -1378 388 -213 97 -334 139 -521 182 -176 40 -367
77 -372 71 -2 -2 40 -21 94 -42 329 -130 576 -239 782 -346 287 -149 1012
-520 1171 -599 136 -68 159 -92 159 -168 0 -34 -6 -57 -20 -75 -33 -42 -78
-50 -219 -42 -165 9 -226 20 -536 100 -498 128 -541 142 -1010 343 -281 120
-405 179 -695 332 -138 72 -321 159 -420 199 -170 68 -412 145 -433 138 -15
-5 233 -186 376 -275 66 -41 185 -121 264 -179 317 -229 447 -304 848 -488
259 -119 281 -131 301 -173 13 -29 14 -41 5 -73 -42 -138 -362 -178 -707 -88
-267 69 -563 219 -759 383 -110 91 -827 597 -935 659 -131 74 -675 357 -684
354 -5 -2 15 -19 45 -37 87 -56 234 -178 379 -315 163 -153 210 -188 410 -300
316 -178 376 -219 695 -480 116 -94 239 -193 275 -220 149 -114 236 -188 249
-212 7 -14 13 -41 13 -60 0 -71 -58 -113 -154 -113 -74 1 -333 60 -453 105
-209 77 -575 275 -788 426 -56 39 -187 124 -292 187 -237 143 -382 240 -583
388 -125 92 -252 169 -625 380 -257 146 -472 264 -478 262 -6 -2 134 -118 312
-258 735 -582 787 -621 1049 -792 220 -144 351 -292 445 -506 46 -106 99 -257
110 -315 6 -33 5 -37 -13 -37 -39 0 -269 92 -447 180 -289 141 -595 333 -842
527 -555 436 -1302 1005 -1313 1001 -5 -2 25 -41 67 -88 275 -307 602 -626
888 -865 94 -79 190 -167 215 -196 117 -138 332 -435 438 -605 59 -96 125
-224 118 -231 -15 -15 -334 106 -504 191 -135 68 -323 178 -562 331 -495 317
-822 569 -1135 875 -166 162 -791 697 -802 686 -11 -11 191 -275 384 -503 284
-336 496 -532 900 -836 195 -146 205 -158 313 -372 81 -158 120 -278 159 -478
45 -234 45 -237 27 -237 -24 0 -92 36 -314 167 -474 279 -746 485 -1043 789
-292 300 -522 651 -693 1061 -28 64 -78 158 -121 222 -83 126 -225 311 -238
311 -13 0 -1 -47 75 -278 113 -347 179 -503 307 -727 223 -388 492 -710 825
-990 66 -55 132 -111 148 -125 24 -21 32 -41 50 -130 17 -86 21 -144 22 -315
1 -229 -7 -325 -29 -325 -7 0 -98 43 -201 94 -296 149 -489 285 -718 506 -239
232 -407 475 -627 909 -149 293 -230 524 -290 826 -16 83 -34 163 -39 179 -14
41 -222 418 -227 412 -9 -8 28 -317 57 -491 71 -414 151 -654 348 -1039 242
-476 439 -747 735 -1014 l128 -115 -38 -39 c-51 -53 -137 -111 -231 -156 -71
-34 -84 -37 -167 -37 -186 1 -290 81 -441 337 -311 530 -491 1172 -558 1988
-9 102 -17 205 -20 228 -4 45 -175 492 -188 492 -11 0 -10 -286 2 -480 53
-870 175 -1414 467 -2079 5 -10 2 -11 -13 -3 -31 16 -234 203 -297 273 -144
158 -310 459 -365 660 -95 346 -103 727 -27 1204 26 160 20 204 -52 400 -21
58 -42 103 -48 102 -11 -4 -38 -158 -84 -472 -39 -269 -51 -399 -51 -557 0
-102 -3 -128 -14 -128 -7 0 -17 10 -20 23 -35 124 -66 372 -66 535 0 115 -17
213 -60 347 -16 50 -36 116 -45 148 -8 31 -19 57 -24 57 -9 0 -37 -179 -52
-340 -6 -63 -9 -170 -5 -237 3 -67 2 -124 -3 -127 -13 -9 -90 34 -116 66 -85
101 -138 235 -164 413 -78 537 -36 1147 123 1791 180 724 357 1183 631 1634
89 146 113 178 220 286 208 210 405 319 653 359 125 21 386 13 516 -15z"/>
<path d="M18531 13238 c-1 -49 -5 -59 -27 -77 -15 -12 -31 -21 -37 -21 -6 0
-53 -21 -105 -46 -72 -35 -109 -48 -156 -51 -57 -4 -65 -2 -121 33 -33 20 -77
45 -98 56 -44 22 -216 50 -257 41 l-29 -5 47 -38 c69 -54 150 -150 226 -267
42 -66 73 -103 84 -103 25 0 68 29 147 100 39 34 104 86 146 115 76 53 131
109 183 183 27 39 27 41 12 88 l-15 49 0 -57z"/>
<path d="M17757 12509 c-91 -21 -189 -89 -363 -250 -62 -57 -111 -93 -161
-117 -40 -19 -73 -35 -73 -36 0 0 260 1 579 2 491 3 595 2 687 -12 60 -9 133
-16 162 -16 l53 0 -62 93 c-89 132 -125 173 -207 239 -96 76 -110 79 -164 35
-64 -51 -101 -67 -160 -67 -68 1 -121 25 -192 89 -31 28 -57 51 -59 50 -1 -1
-19 -5 -40 -10z"/>
<path d="M17440 11811 c0 -6 8 -16 18 -23 10 -7 36 -40 58 -73 52 -81 146
-205 175 -232 67 -62 224 -90 329 -60 61 18 192 95 259 153 52 45 125 154 112
167 -5 5 -31 -4 -64 -23 -31 -17 -108 -44 -174 -61 -100 -26 -130 -30 -198
-25 -111 7 -182 28 -262 77 -126 77 -253 127 -253 100z"/>
<path d="M10635 5586 c-29 -44 -46 -174 -52 -398 l-6 -218 126 0 126 0 -69
-133 c-162 -312 -232 -645 -209 -996 40 -621 294 -1081 712 -1292 188 -95 364
-132 632 -131 406 0 665 101 734 287 21 56 22 70 19 354 -3 294 -3 296 -28
339 -32 57 -80 86 -144 87 -42 0 -74 -11 -181 -61 -71 -34 -152 -69 -180 -78
-149 -47 -332 -59 -455 -30 -202 47 -387 207 -495 429 -72 145 -90 231 -89
420 1 144 4 169 28 250 100 330 354 547 625 533 109 -6 164 -32 266 -129 60
-58 79 -70 98 -65 28 7 271 166 378 246 110 84 199 169 199 190 0 42 -105 163
-205 235 -77 56 -187 111 -246 124 -25 6 -211 15 -415 21 -373 10 -821 25
-1036 35 -116 5 -117 5 -133 -19z"/>
<path d="M12806 4938 c2 -106 7 -235 10 -285 l6 -93 60 0 c52 0 59 -2 54 -17
-111 -370 -154 -724 -135 -1130 17 -392 64 -644 152 -818 42 -84 73 -122 126
-153 l46 -27 731 -3 731 -3 7 38 c9 59 20 793 12 837 -9 47 -10 47 -164 -23
-190 -87 -215 -91 -600 -91 -376 0 -373 0 -445 79 -80 88 -107 178 -114 373
-7 171 3 210 65 271 66 64 91 69 432 77 168 5 423 12 568 16 l262 7 0 169 0
169 -576 -1 c-557 -2 -578 -1 -603 18 -22 16 -26 28 -29 74 -5 100 29 116 253
117 126 1 724 26 883 37 l92 6 0 268 0 267 -352 6 c-194 4 -606 7 -915 7
l-563 0 6 -192z"/>
<path d="M15810 4866 l0 -263 39 -26 c84 -56 125 -180 143 -433 11 -156 11
-162 -10 -205 -24 -50 -83 -93 -177 -129 -51 -20 -79 -24 -185 -24 -115 -1
-130 1 -181 25 -76 36 -130 87 -164 156 -54 109 -45 327 21 473 40 90 123 160
190 160 l24 0 0 255 0 255 -355 0 -355 0 0 -265 0 -265 55 0 c35 0 55 -4 55
-11 0 -7 -9 -42 -20 -78 -109 -369 -77 -762 86 -1034 93 -155 205 -265 333
-326 70 -33 81 -35 175 -35 81 0 112 5 156 23 72 30 170 100 216 156 56 69 55
70 34 -95 -7 -47 -36 -218 -65 -380 -29 -162 -56 -316 -59 -342 l-7 -48 264 0
265 0 25 83 c84 269 152 538 188 745 51 289 30 714 -57 1152 -25 122 -25 124
-6 149 10 14 35 30 55 34 l37 9 0 267 0 268 -137 6 c-75 4 -237 7 -360 7
l-223 0 0 -264z"/>
<path d="M16676 4938 c2 -106 7 -235 10 -285 l6 -93 60 0 c52 0 59 -2 54 -17
-111 -370 -154 -724 -135 -1130 17 -392 64 -644 152 -818 42 -84 73 -122 126
-153 l46 -27 731 -3 731 -3 7 38 c9 59 20 793 12 837 -9 47 -10 47 -164 -23
-190 -87 -215 -91 -600 -91 -376 0 -373 0 -445 79 -80 88 -107 178 -114 373
-7 171 3 210 65 271 66 64 91 69 432 77 168 5 423 12 568 16 l262 7 0 169 0
169 -576 -1 c-557 -2 -578 -1 -603 18 -22 16 -26 28 -29 74 -5 100 29 116 253
117 126 1 724 26 883 37 l92 6 0 268 0 267 -352 6 c-194 4 -606 7 -915 7
l-563 0 6 -192z"/>
<path d="M19826 4918 c-8 -283 -23 -471 -41 -538 -23 -87 -30 -90 -217 -90
l-160 0 -28 30 c-15 16 -30 44 -34 61 -3 17 -6 136 -6 264 0 127 -3 287 -7
353 l-6 122 -334 0 -333 0 0 -275 0 -275 70 0 c39 0 70 -3 70 -6 0 -4 -15 -45
-34 -93 -166 -415 -159 -1242 14 -1805 16 -52 38 -117 50 -145 20 -45 27 -52
69 -65 59 -20 186 -33 383 -41 l157 -7 -20 64 c-72 238 -119 649 -119 1056 0
252 13 325 70 386 35 37 42 40 101 44 35 2 106 -1 156 -6 77 -8 99 -14 129
-37 44 -34 79 -107 93 -195 29 -179 -5 -653 -79 -1108 -17 -100 -30 -187 -30
-192 0 -6 112 -10 294 -10 272 0 295 1 300 18 15 46 78 381 100 530 40 268 57
473 57 687 1 271 -26 501 -86 738 -14 54 -25 108 -25 121 0 27 35 46 85 46
l35 0 0 290 0 290 -333 0 -334 0 -7 -212z"/>
<path d="M20710 4856 l0 -275 55 -6 c30 -4 62 -13 71 -19 15 -12 15 -17 -4
-69 -99 -262 -143 -685 -123 -1174 20 -493 65 -744 150 -834 l38 -39 219 0
c158 0 223 3 232 12 19 19 14 98 -19 286 -28 159 -31 197 -31 372 0 113 7 253
17 331 52 447 249 883 444 984 29 15 34 14 67 -1 64 -31 108 -130 140 -314 22
-126 31 -649 15 -862 -23 -303 -77 -597 -145 -787 -9 -24 -14 -46 -12 -49 8
-7 388 17 436 29 62 14 77 31 104 119 107 337 157 1119 100 1560 -18 139 -54
297 -89 381 -14 34 -25 66 -25 71 0 4 29 8 65 8 l65 0 0 265 0 265 -192 0
c-199 0 -383 -13 -452 -31 -62 -17 -328 -289 -438 -449 -16 -24 -17 -13 -17
238 l-1 262 -335 0 -335 0 0 -274z m609 -282 c17 -4 31 -10 31 -14 0 -6 -86
-118 -111 -144 -5 -6 -9 25 -9 77 l0 87 29 0 c16 0 43 -3 60 -6z"/>
<path d="M22706 4938 c2 -106 7 -235 10 -285 l6 -93 60 0 c52 0 59 -2 54 -17
-111 -370 -154 -724 -135 -1130 17 -392 64 -644 152 -818 42 -84 73 -122 126
-153 l46 -27 731 -3 731 -3 7 38 c9 59 20 793 12 837 -9 47 -10 47 -164 -23
-190 -87 -215 -91 -600 -91 -376 0 -373 0 -445 79 -80 88 -107 178 -114 373
-7 171 3 210 65 271 66 64 91 69 432 77 168 5 423 12 568 16 l262 7 0 169 0
169 -576 -1 c-557 -2 -578 -1 -603 18 -22 16 -26 28 -29 74 -5 100 29 116 253
117 126 1 724 26 883 37 l92 6 0 268 0 267 -352 6 c-194 4 -606 7 -915 7
l-563 0 6 -192z"/>
</g>
</svg>
